PathFileType	4	(X/Y/Z)	/Users/itak/Documents/Research/Walk-IL/dataset/trc/00560_00009.trc
DataRate	CameraRate	NumFrames	NumMarkers	Units	OrigDataRate	OrigDataStartFrame	OrigNumFrames
100.000000	100.000000	4	54	mm	100.000000	300	400
Frame#	Time	RPSI			LPSI			L3			STRN			T10			C7			CLAV			RBAK			LBAK			LSHO			LUPA			LAEL			LAOL			LWTS			LWPS			LFRA			LHPS			RSHO			RUPA			RAEL			RAOL			RWTS			RWPS			RFRA			RIFD			RHTS			RHPS			RBHD			LFHD			RFHD			LBHD			LHIP			RHIP			RASI			LASI			LKNE			LTHI			LANK			LTIP			LTOE			LMT1			LMT5			LHEE			RKNE			RTHI			RANK			RTIP			RTOE			RMT1			RMT5			RHEE			LIFD			LHTS			*53			
		X1	Y1	Z1	X2	Y2	Z2	X3	Y3	Z3	X4	Y4	Z4	X5	Y5	Z5	X6	Y6	Z6	X7	Y7	Z7	X8	Y8	Z8	X9	Y9	Z9	X10	Y10	Z10	X11	Y11	Z11	X12	Y12	Z12	X13	Y13	Z13	X14	Y14	Z14	X15	Y15	Z15	X16	Y16	Z16	X17	Y17	Z17	X18	Y18	Z18	X19	Y19	Z19	X20	Y20	Z20	X21	Y21	Z21	X22	Y22	Z22	X23	Y23	Z23	X24	Y24	Z24	X25	Y25	Z25	X26	Y26	Z26	X27	Y27	Z27	X28	Y28	Z28	X29	Y29	Z29	X30	Y30	Z30	X31	Y31	Z31	X32	Y32	Z32	X33	Y33	Z33	X34	Y34	Z34	X35	Y35	Z35	X36	Y36	Z36	X37	Y37	Z37	X38	Y38	Z38	X39	Y39	Z39	X40	Y40	Z40	X41	Y41	Z41	X42	Y42	Z42	X43	Y43	Z43	X44	Y44	Z44	X45	Y45	Z45	X46	Y46	Z46	X47	Y47	Z47	X48	Y48	Z48	X49	Y49	Z49	X50	Y50	Z50	X51	Y51	Z51	X52	Y52	Z52	X53	Y53	Z53	X54	Y54	Z54	

301	3	953.5573120117188	1016.566345214844	528.1978149414062	997.81201171875	1022.313842773438	402.9559326171875	979.1771240234375	1112.7421875	466.7724609375	1197.7763671875	1309.091186523438	527.8826904296875	966.299072265625	1238.326049804688	464.8386840820312	1000.318481445312	1513.851196289062	492.3670043945312	1174.349731445312	1419.906494140625	524.1222534179688	916.6400756835938	1385.404663085938	560.378173828125	989.5490112304688	1460.501708984375	395.0922241210938	1102.59326171875	1494.099487304688	342.3311462402344	1130.006469726562	1376.911376953125	256.5822448730469	1203.696411132812	1184.525390625	219.6815032958984	1123.033325195312	1128.316284179688	249.1046905517578	1411.526000976562	1093.3369140625	332.2073364257812	1422.085571289062	1043.570190429688	260.9710083007812	1274.693359375	1140.672607421875	231.1467742919922	1472.804565429688	1018.764099121094	280.7549438476562	1023.654541015625	1479.537841796875	655.8975830078125	991.2059936523438	1417.598754882812	718.156982421875	974.6580810546875	1134.66259765625	779.8770141601562	926.2731323242188	1116.233032226562	740.7911987304688	1102.762084960938	908.0514526367188	795.2705688476562	1041.929443359375	897.8019409179688	849.2620239257812	979.6574096679688	1080.65087890625	794.102783203125	1100.041015625	737.241455078125	819.30615234375	1121.561279296875	818.7508544921875	828.185546875	1055.71484375	824.7258911132812	862.3417358398438	1107.418823242188	1700.405517578125	591.336669921875	1280.535888671875	1681.357299804688	477.0421752929688	1243.761962890625	1678.890502929688	617.4752807617188	1155.384521484375	1699.639404296875	433.1593933105469	1162.842163085938	952.25244140625	320.2921447753906	1034.488647460938	945.511962890625	681.9483642578125	1133.791625976562	982.6906127929688	654.999267578125	1220.856323242188	980.8750610351562	392.3926086425781	1209.967651367188	509.5469360351562	391.2581787109375	1205.205078125	676.42724609375	352.5143432617188	1127.23876953125	38.3651008605957	365.8125610351562	1152.311401367188	261.1919250488281	365.6365051269531	1305.766845703125	39.38309097290039	498.4273376464844	1222.212158203125	46.0749397277832	503.5469055175781	1244.6591796875	38.42012786865234	400.41357421875	1043.942504882812	33.0439338684082	390.3292236328125	1117.747924804688	504.9222717285156	652.630859375	1083.659301757812	795.4476318359375	693.2853393554688	1020.240417480469	37.80794525146484	595.0930786132812	1122.211547851562	358.95166015625	636.6551513671875	1248.65185546875	40.56046676635742	617.5276489257812	1197.722534179688	44.82513809204102	561.0650634765625	1143.247924804688	40.86309814453125	652.51806640625	986.7373657226562	28.00735855102539	525.1307983398438	1538.122192382812	992.6358032226562	364.1518859863281	1486.328857421875	1065.62353515625	328.7765502929688	nan	nan	nan	
302	3.01	955.9402465820312	1017.050598144531	528.7327270507812	1000.458068847656	1022.658752441406	403.6259155273438	981.8638305664062	1112.446411132812	467.263427734375	1199.785278320312	1308.998657226562	529.2831420898438	968.801025390625	1238.044555664062	465.3145446777344	1002.057983398438	1513.6650390625	493.0630493164062	1176.123291015625	1419.77392578125	525.4110717773438	918.4266967773438	1384.884033203125	560.5270385742188	991.8304443359375	1460.25	395.9856567382812	1104.876098632812	1493.920288085938	343.2712707519531	1131.230346679688	1376.39990234375	257.4017639160156	1201.357299804688	1182.610473632812	219.5126647949219	1119.453857421875	1128.206665039062	249.0547790527344	1407.031127929688	1085.697509765625	331.4215393066406	1416.127319335938	1035.8212890625	260.0285034179688	1271.281372070312	1136.864501953125	230.7663879394531	1466.198974609375	1009.569091796875	279.5849609375	1024.567626953125	1479.239501953125	656.633056640625	991.8096923828125	1417.296020507812	718.67138671875	975.2529907226562	1134.473510742188	780.7885131835938	927.4424438476562	1115.6328125	741.2116088867188	1104.98486328125	909.0628051757812	798.0997314453125	1043.537109375	898.2437744140625	851.201904296875	980.4652099609375	1080.472412109375	795.13525390625	1104.031860351562	738.234619140625	822.6109619140625	1124.36376953125	820.1411743164062	831.6594848632812	1057.917724609375	825.393310546875	864.6790771484375	1108.1650390625	1700.348999023438	592.7224731445312	1281.569213867188	1682.250366210938	478.6210632324219	1244.623657226562	1679.509887695312	619.060791015625	1156.346069335938	1699.958984375	434.6388854980469	1165.435913085938	951.9627685546875	321.3267517089844	1036.137084960938	945.5178833007812	682.6565551757812	1135.703979492188	982.4010009765625	656.1654663085938	1223.347900390625	980.3002319335938	393.7396545410156	1209.454956054688	508.7816772460938	391.619873046875	1205.905029296875	675.7830810546875	353.0914001464844	1127.099487304688	37.96100997924805	365.7490844726562	1151.838500976562	260.7134094238281	365.6467895507812	1305.717163085938	39.43557357788086	498.4009399414062	1222.09912109375	46.01054763793945	503.5932312011719	1244.552978515625	38.3676643371582	400.4173278808594	1043.710083007812	32.42694091796875	390.3320007324219	1116.160034179688	504.5113830566406	651.9522705078125	1084.348022460938	795.1025390625	693.5382690429688	1020.184509277344	37.67104721069336	594.8099975585938	1120.679077148438	358.7611083984375	635.7859497070312	1248.623291015625	40.60898971557617	617.4810180664062	1197.742065429688	44.66806793212891	560.8819580078125	1143.291015625	40.9777946472168	652.1841430664062	986.64208984375	27.46488571166992	524.8965454101562	1530.734252929688	981.3739624023438	362.9167175292969	1481.030883789062	1055.886962890625	327.79931640625	nan	nan	nan	
303	3.02	958.239501953125	1017.439025878906	529.2737426757812	1002.97998046875	1022.880981445312	404.2805480957031	984.3983154296875	1112.072998046875	467.7315673828125	1201.723388671875	1308.835693359375	530.5982055664062	971.2484741210938	1237.706420898438	465.7506713867188	1003.729431152344	1513.428466796875	493.7018737792969	1177.821533203125	1419.568969726562	526.6464233398438	920.1035766601562	1384.27197265625	560.5824584960938	994.0021362304688	1459.951049804688	396.7993469238281	1107.095581054688	1493.677490234375	344.1685791015625	1132.430541992188	1375.881591796875	258.1753845214844	1199.23876953125	1180.746948242188	219.3321075439453	1115.998901367188	1128.210083007812	248.7651824951172	1402.113647460938	1077.434448242188	330.9014282226562	1409.960693359375	1027.860107421875	259.13330078125	1267.957641601562	1133.007934570312	230.4456176757812	1459.218994140625	999.9749755859375	278.4939575195312	1025.383911132812	1478.84521484375	657.2936401367188	992.279052734375	1416.867431640625	719.0804443359375	975.7098999023438	1134.157348632812	781.6052856445312	928.4910278320312	1114.892700195312	741.5963134765625	1107.245971679688	910.1041259765625	800.7450561523438	1045.217163085938	898.584716796875	852.9635620117188	981.1849365234375	1080.1611328125	796.0697021484375	1108.412841796875	739.3406372070312	825.7111206054688	1127.365600585938	821.6145629882812	834.9336547851562	1060.346923828125	825.9763793945312	866.8108520507812	1108.997314453125	1700.270751953125	594.0397338867188	1282.650024414062	1682.95654296875	480.1737365722656	1245.530029296875	1679.990478515625	620.5992431640625	1157.394653320312	1700.192138671875	436.0539855957031	1167.874877929688	951.57373046875	322.2413940429688	1037.824829101562	945.4979248046875	683.342041015625	1137.658081054688	982.1038818359375	657.212158203125	1225.734130859375	979.6580200195312	394.9314270019531	1208.9921875	507.9807434082031	391.9477844238281	1206.591674804688	675.0816040039062	353.5758972167969	1126.9931640625	37.59367752075195	365.6382141113281	1151.41552734375	260.2188415527344	365.6493835449219	1305.674926757812	39.47948837280273	498.3799133300781	1221.989379882812	45.93801879882812	503.638671875	1244.465454101562	38.31103134155273	400.4039001464844	1043.497802734375	31.84440231323242	390.3260803222656	1114.588989257812	504.1195068359375	651.3229370117188	1085.117431640625	794.7539672851562	693.7348022460938	1020.131408691406	37.54961395263672	594.549072265625	1119.145751953125	358.5906372070312	634.9449462890625	1248.59130859375	40.65860748291016	617.4321899414062	1197.756469726562	44.52397155761719	560.70947265625	1143.337524414062	41.0784912109375	651.8721313476562	986.543212890625	26.97000122070312	524.7144165039062	1522.462036132812	969.171142578125	361.8879089355469	1475.195556640625	1045.407958984375	327.2060852050781	nan	nan	nan	
304	3.03	960.45556640625	1017.776245117188	529.8233642578125	1005.379028320312	1023.030944824219	404.92138671875	986.7706298828125	1111.666870117188	468.1798400878906	1203.59521484375	1308.649658203125	531.8087768554688	973.6153564453125	1237.362182617188	466.1519470214844	1005.332092285156	1513.181884765625	494.3042907714844	1179.449096679688	1419.3369140625	527.81640625	921.6771850585938	1383.617431640625	560.55712890625	996.0521850585938	1459.653564453125	397.5524597167969	1109.22265625	1493.429077148438	345.0222473144531	1133.572998046875	1375.404296875	258.9137573242188	1197.340087890625	1178.961547851562	219.2114562988281	1112.686279296875	1128.357666015625	248.3340301513672	1396.7568359375	1068.599975585938	330.6302490234375	1403.57568359375	1019.736389160156	258.2718505859375	1264.718872070312	1129.138427734375	230.2240447998047	1451.83935546875	990.0350952148438	277.4519958496094	1026.120971679688	1478.387573242188	657.8870239257812	992.635986328125	1416.342529296875	719.3943481445312	976.0664672851562	1133.746459960938	782.3177490234375	929.4542846679688	1114.064453125	741.9357299804688	1109.529174804688	911.1705932617188	803.1795043945312	1046.9619140625	898.847900390625	854.543701171875	981.8443603515625	1079.750244140625	796.900146484375	1113.088256835938	740.5582885742188	828.5945434570312	1130.509521484375	823.15478515625	837.9706420898438	1062.967651367188	826.5009155273438	868.7366943359375	1109.921997070312	1700.2099609375	595.2997436523438	1283.781372070312	1683.4931640625	481.7052917480469	1246.48291015625	1680.3447265625	622.0924682617188	1158.537109375	1700.374633789062	437.4073181152344	1170.1572265625	951.1409912109375	323.0380249023438	1039.550048828125	945.4884643554688	684.0069580078125	1139.650756835938	981.8421630859375	658.1371459960938	1228.013061523438	979.00341796875	395.9580383300781	1208.588134765625	507.1986694335938	392.2201538085938	1207.270263671875	674.37548828125	353.9447937011719	1126.91796875	37.28087997436523	365.5024719238281	1151.039306640625	259.7540283203125	365.6322326660156	1305.639404296875	39.51694107055664	498.3605651855469	1221.88916015625	45.86263656616211	503.6802368164062	1244.3955078125	38.25714874267578	400.3805847167969	1043.315673828125	31.33339881896973	390.3165893554688	1113.03564453125	503.7792358398438	650.7471313476562	1085.958862304688	794.438232421875	693.9024047851562	1020.082458496094	37.4447135925293	594.3250122070312	1117.611938476562	358.4721984863281	634.1466064453125	1248.553100585938	40.70916748046875	617.3827514648438	1197.760498046875	44.39805603027344	560.5537109375	1143.377807617188	41.15960693359375	651.6004638671875	986.44677734375	26.53337669372559	524.5885620117188	1513.254028320312	956.1084594726562	360.9774475097656	1468.790283203125	1034.239379882812	326.9598693847656	nan	nan	nan	
